<svg id="Capa_1" data-name="Capa 1" xmlns="http://www.w3.org/2000/svg" viewBox="0 0 702 702"><defs><style>.cls-1{fill:#3fa9f5;}.cls-2{fill:none;}.cls-3{fill:#2e3192;}.cls-4{fill:#fcee21;}</style></defs><title>Boton de configuración de la pagina web de Juli Toon 2</title><circle class="cls-1" cx="350.22" cy="350.35" r="213.42"/><rect class="cls-2" width="702" height="702"/><circle class="cls-3" cx="351" cy="351" r="153.78"/><path class="cls-4" d="M540,506.18a67.76,67.76,0,0,1-67.69-67.69h16a51.67,51.67,0,1,0,103.34,0h16A67.76,67.76,0,0,1,540,506.18Z" transform="translate(-189 -189)"/><path class="cls-4" d="M540,573.85a67.77,67.77,0,0,1-67.69-67.7h16a51.67,51.67,0,1,0,103.34,0h16A67.77,67.77,0,0,1,540,573.85Z" transform="translate(-189 -189)"/><path class="cls-4" d="M540,641.51a67.77,67.77,0,0,1-67.69-67.69h16a51.67,51.67,0,1,0,103.34,0h16A67.77,67.77,0,0,1,540,641.51Z" transform="translate(-189 -189)"/></svg>