<svg width="148" height="148" viewBox="0 0 148 148" fill="none" xmlns="http://www.w3.org/2000/svg">
<g clip-path="url(#clip0_1439_310)">
<path d="M133.753 39.5709L108.447 14.2648C89.4272 -4.75472 58.5904 -4.75472 39.5709 14.2648L14.2648 39.5709C-4.7547 58.5904 -4.7547 89.4271 14.2648 108.447L39.5709 133.753C58.5904 152.772 89.4272 152.772 108.447 133.753L133.753 108.447C152.772 89.4271 152.772 58.5904 133.753 39.5709Z" fill="#2E3192"/>
<mask id="mask0_1439_310" style="mask-type:alpha" maskUnits="userSpaceOnUse" x="26" y="26" width="96" height="96">
<rect x="26.9092" y="26.9092" width="94.1818" height="94.1818" fill="#D9D9D9"/>
</mask>
<g mask="url(#mask0_1439_310)">
<path d="M57.6167 77.9241L79.5924 99.8999L74.0004 105.394L42.6064 73.9999L74.0004 42.606L79.5924 48.0999L57.6167 70.0757H105.394V77.9241H57.6167Z" fill="#FCEE21"/>
</g>
</g>
<defs>
<clipPath id="clip0_1439_310">
<rect width="148" height="148" fill="white"/>
</clipPath>
</defs>
</svg>
