<svg id="Capa_1" data-name="Capa 1" xmlns="http://www.w3.org/2000/svg" viewBox="0 0 407.74 385.48"><defs><style>.cls-1{fill:#2e3192;}.cls-2{fill:#fcee21;}</style></defs><title>Juli Toon 2 fondo blanco</title><path class="cls-1" d="M467.83,347.26V416.2a30.7,30.7,0,0,1-2.6,12.7,27.75,27.75,0,0,1-7.58,10,35.38,35.38,0,0,1-12.14,6.53,52.22,52.22,0,0,1-16.15,2.32,37.79,37.79,0,0,1-15.87-3.09,33.33,33.33,0,0,1-11.09-7.93,34.7,34.7,0,0,1-6.46-10,25.4,25.4,0,0,1-2.1-9.41l22.88-7q1.54,6.88,4.78,10.25a10.77,10.77,0,0,0,8.14,3.37,12.81,12.81,0,0,0,6.39-1.54,10.48,10.48,0,0,0,4.28-4.71,18,18,0,0,0,1.55-7.93V347.26Z" transform="translate(-336.13 -347.26)"/><path class="cls-1" d="M566.12,347.26v60.23q0,12.36-5.06,21.27a33.64,33.64,0,0,1-14.53,13.69q-9.48,4.77-22.82,4.78-13.05,0-22.46-4.78a33.3,33.3,0,0,1-14.39-13.69q-5-8.91-5-21.27V347.26h26v60.23a17,17,0,0,0,2,8.43,12.92,12.92,0,0,0,5.55,5.33,18.77,18.77,0,0,0,8.63,1.83,19.26,19.26,0,0,0,8.71-1.83,12.42,12.42,0,0,0,5.54-5.33,17.44,17.44,0,0,0,1.9-8.43V347.26Z" transform="translate(-336.13 -347.26)"/><polygon class="cls-1" points="311.84 74.41 311.84 98.28 245.43 98.28 245.43 0 271.4 0 271.4 74.41 311.84 74.41"/><rect class="cls-1" x="323.07" width="25.98" height="98.28"/><polygon class="cls-1" points="81.44 134.49 81.44 158.36 53.77 158.36 53.77 232.77 27.8 232.77 27.8 158.36 0 158.36 0 134.49 81.44 134.49"/><polygon class="cls-1" points="407.74 134.49 407.74 232.77 381.77 232.77 342.03 176.75 342.03 232.77 316.06 232.77 316.06 134.49 343.43 134.49 381.77 188.54 381.77 134.49 407.74 134.49"/><path class="cls-1" d="M525.1,531a49.2,49.2,0,1,1-49.2-49.19A49.19,49.19,0,0,1,525.1,531Z" transform="translate(-336.13 -347.26)"/><circle class="cls-1" cx="251.68" cy="183.7" r="49.19"/><path class="cls-2" d="M540,732.74a88.14,88.14,0,0,1-88-88H472.8a67.2,67.2,0,1,0,134.4,0H628A88.13,88.13,0,0,1,540,732.74Z" transform="translate(-336.13 -347.26)"/></svg>