<svg width="171" height="123" viewBox="0 0 171 123" fill="none" xmlns="http://www.w3.org/2000/svg">
<path d="M118.444 119.259L106.388 107.202L120.073 93.517L106.388 79.8316L118.444 67.7754L132.129 81.4608L145.815 67.7754L158.034 79.8316L144.349 93.517L157.871 107.202L145.815 119.259L132.129 105.736L118.444 119.259ZM85.3709 122.517L0 37.1461C11.0787 25.1985 24.0038 16.0206 38.7754 9.61238C53.5469 3.20413 69.0788 0 85.3709 0C101.663 0 117.195 3.20413 131.967 9.61238C146.738 16.0206 159.663 25.1985 170.742 37.1461L145.326 62.5619L133.107 50.3428L145.815 37.6349C137.126 30.9008 127.625 25.8231 117.313 22.4017C107.003 18.9804 96.3584 17.2697 85.3807 17.2697C74.4042 17.2697 63.7567 18.9804 53.4383 22.4017C43.1199 25.8231 33.6162 30.9008 24.927 37.6349L85.3709 98.0788L91.7249 91.7249L104.107 103.781L85.3709 122.517Z" fill="#3FA9F5"/>
</svg>
